<?xml version="1.0" encoding="UTF-8"?>
<!DOCTYPE svg PUBLIC "-//W3C//DTD SVG 1.1//EN" "http://www.w3.org/Graphics/SVG/1.1/DTD/svg11.dtd">
<svg xmlns="http://www.w3.org/2000/svg" version="1.1" width="842px" height="846px" style="shape-rendering:geometricPrecision; text-rendering:geometricPrecision; image-rendering:optimizeQuality; fill-rule:evenodd; clip-rule:evenodd" xmlns:xlink="http://www.w3.org/1999/xlink">
<g><path style="opacity:0.887" fill="#fefefe" d="M 124.5,667.5 C 210.446,764.275 318.446,809.108 448.5,802C 579.711,788.03 679.544,725.196 748,613.5C 799.363,521.242 812.029,423.909 786,321.5C 755.64,218.172 693.807,140.005 600.5,87C 498.836,34.611 393.836,26.7777 285.5,63.5C 337.85,43.187 392.183,35.0203 448.5,39C 576.655,51.1236 675.822,110.624 746,217.5C 803.693,313.338 819.026,415.671 792,524.5C 755.552,649.951 676.718,737.117 555.5,786C 445.305,824.483 338.638,816.483 235.5,762C 192.555,737.56 155.555,706.06 124.5,667.5 Z"/></g>
<g><path style="opacity:0.999" fill="#e1e2e2" d="M 124.5,667.5 C 73.8324,605.064 45.3324,533.397 39,452.5C 32.4414,327.111 74.6081,221.611 165.5,136C 200.878,104.465 240.878,80.2982 285.5,63.5C 393.836,26.7777 498.836,34.611 600.5,87C 693.807,140.005 755.64,218.172 786,321.5C 812.029,423.909 799.363,521.242 748,613.5C 679.544,725.196 579.711,788.03 448.5,802C 318.446,809.108 210.446,764.275 124.5,667.5 Z"/></g>
<g><path style="opacity:1" fill="#11484d" d="M 397.5,67.5 C 399.833,67.5 402.167,67.5 404.5,67.5C 404.334,75.84 404.5,84.1733 405,92.5C 406.866,99.3469 411.032,101.18 417.5,98C 419.487,96.6811 420.654,94.8477 421,92.5C 421.5,84.1733 421.666,75.84 421.5,67.5C 423.5,67.5 425.5,67.5 427.5,67.5C 427.358,79.5183 427.691,91.5183 428.5,103.5C 426.473,103.662 424.473,103.495 422.5,103C 421.809,101.933 421.309,100.766 421,99.5C 418.661,103.347 415.161,105.014 410.5,104.5C 404.632,104.803 400.798,102.137 399,96.5C 398.755,86.8004 398.255,77.1337 397.5,67.5 Z"/></g>
<g><path style="opacity:1" fill="#11484c" d="M 335.5,60.5 C 336.496,60.4142 337.329,60.7476 338,61.5C 342.283,78.4153 346.116,95.4153 349.5,112.5C 347.533,112.261 345.699,112.594 344,113.5C 339.989,96.4574 335.823,79.4574 331.5,62.5C 332.949,61.8281 334.282,61.1614 335.5,60.5 Z"/></g>
<g><path style="opacity:1" fill="#12484d" d="M 441.5,68.5 C 443.5,68.5 445.5,68.5 447.5,68.5C 447.337,70.8568 447.503,73.1902 448,75.5C 450.885,70.975 455.052,68.975 460.5,69.5C 460.167,71.5 459.833,73.5 459.5,75.5C 454.261,74.9588 450.428,76.9588 448,81.5C 446.31,89.3957 445.477,97.3957 445.5,105.5C 443.011,105.702 440.677,105.202 438.5,104C 439.899,92.2504 440.899,80.417 441.5,68.5 Z"/></g>
<g><path style="opacity:1" fill="#12484c" d="M 368.5,70.5 C 379.702,69.5363 386.536,74.5363 389,85.5C 390.182,104.665 381.682,111.499 363.5,106C 354.813,97.3172 353.313,87.4839 359,76.5C 361.843,73.8373 365.009,71.8373 368.5,70.5 Z"/></g>
<g><path style="opacity:1" fill="#e1e2e2" d="M 369.5,75.5 C 373.406,75.4673 376.74,76.8006 379.5,79.5C 384.798,87.4144 384.465,94.9144 378.5,102C 374.01,104.236 369.844,103.736 366,100.5C 361.277,93.844 360.61,86.844 364,79.5C 365.812,78.0229 367.645,76.6896 369.5,75.5 Z"/></g>
<g><path style="opacity:1" fill="#12484c" d="M 325.5,78.5 C 326.771,80.1086 327.771,81.9419 328.5,84C 323.067,85.9323 320.067,89.7656 319.5,95.5C 321.098,103.291 323.098,110.958 325.5,118.5C 323.401,119.231 321.401,119.231 319.5,118.5C 315.927,107.28 312.26,96.1135 308.5,85C 310.813,84.338 313.146,83.838 315.5,83.5C 316.08,90.6178 317.246,90.9511 319,84.5C 321.063,82.2659 323.229,80.2659 325.5,78.5 Z"/></g>
<g><path style="opacity:1" fill="#12484c" d="M 511.5,64.5 C 513.993,65.7736 516.659,66.4403 519.5,66.5C 521.628,84.1146 523.295,101.781 524.5,119.5C 522.173,119.753 520.173,119.086 518.5,117.5C 518.036,112.36 517.036,107.36 515.5,102.5C 509.74,100.601 503.906,98.9347 498,97.5C 494.479,101.366 491.312,105.533 488.5,110C 486.212,109.947 483.879,109.614 481.5,109C 491.892,94.3683 501.892,79.535 511.5,64.5 Z"/></g>
<g><path style="opacity:1" fill="#e1e2e2" d="M 513.5,71.5 C 514.763,78.8222 515.763,86.3222 516.5,94C 516.167,94.8333 515.833,95.6667 515.5,96.5C 510.46,95.1563 505.46,93.6563 500.5,92C 505.23,85.3639 509.563,78.5305 513.5,71.5 Z"/></g>
<g><path style="opacity:1" fill="#12484c" d="M 244.5,98.5 C 255.124,97.6256 261.124,102.459 262.5,113C 262.271,119.46 259.271,124.127 253.5,127C 249.993,129.254 246.327,131.254 242.5,133C 245.916,139.167 249.582,145.167 253.5,151C 251.254,152.039 249.087,153.206 247,154.5C 239.213,139.757 231.047,125.257 222.5,111C 229.765,106.539 237.099,102.372 244.5,98.5 Z"/></g>
<g><path style="opacity:1" fill="#12494c" d="M 285.5,92.5 C 288.85,92.335 292.183,92.5017 295.5,93C 296.5,93.8333 297.5,94.6667 298.5,95.5C 302.689,104.712 307.022,113.878 311.5,123C 309.481,123.45 307.648,124.283 306,125.5C 305,124.167 304,122.833 303,121.5C 300.85,127.841 296.35,131.174 289.5,131.5C 279.588,129.68 276.421,124.013 280,114.5C 284.927,110.284 290.427,106.95 296.5,104.5C 293.781,97.1846 289.115,95.6846 282.5,100C 280.926,101.826 280.093,103.993 280,106.5C 278.333,107.5 276.667,108.5 275,109.5C 274.333,106.5 274.333,103.5 275,100.5C 277.94,96.9632 281.44,94.2965 285.5,92.5 Z"/></g>
<g><path style="opacity:1" fill="#e1e2e2" d="M 244.5,104.5 C 252.962,104.797 256.462,109.13 255,117.5C 254.535,118.931 253.701,120.097 252.5,121C 248.25,123.374 244.084,125.874 240,128.5C 237.032,123.398 234.199,118.231 231.5,113C 235.527,109.656 239.861,106.823 244.5,104.5 Z"/></g>
<g><path style="opacity:1" fill="#e1e2e2" d="M 297.5,108.5 C 302.985,117.205 300.818,123.205 291,126.5C 285.92,125.005 283.92,121.672 285,116.5C 288.712,113.001 292.879,110.335 297.5,108.5 Z"/></g>
<g><path style="opacity:1" fill="#12484c" d="M 545.5,88.5 C 547.359,89.5942 549.359,90.4275 551.5,91C 550.362,92.7343 549.862,94.5676 550,96.5C 557.817,91.9877 564.15,93.6544 569,101.5C 569.667,104.5 569.667,107.5 569,110.5C 565.667,118.5 562.333,126.5 559,134.5C 557.082,133.458 555.249,132.292 553.5,131C 557.516,122.788 560.85,114.288 563.5,105.5C 561.451,99.9718 557.451,97.8052 551.5,99C 549.714,99.7845 548.214,100.951 547,102.5C 543.472,110.084 540.139,117.751 537,125.5C 535.082,124.458 533.249,123.292 531.5,122C 536.311,110.88 540.978,99.7134 545.5,88.5 Z"/></g>
<g><path style="opacity:1" fill="#12484c" d="M 614.5,105.5 C 616.757,105.962 618.757,106.962 620.5,108.5C 611.919,123.997 603.086,139.33 594,154.5C 592.846,153.257 591.512,152.257 590,151.5C 590.263,150.049 590.096,148.716 589.5,147.5C 576.475,148.64 570.641,142.64 572,129.5C 574.428,121.081 579.595,115.247 587.5,112C 595.927,110.797 602.094,113.963 606,121.5C 609.113,116.271 611.947,110.938 614.5,105.5 Z"/></g>
<g><path style="opacity:1" fill="#e1e2e2" d="M 588.5,117.5 C 598.039,116.869 602.206,121.203 601,130.5C 599,133.833 597,137.167 595,140.5C 586.676,145.754 580.843,143.754 577.5,134.5C 578.433,126.945 582.1,121.278 588.5,117.5 Z"/></g>
<g><path style="opacity:1" fill="#12484c" d="M 649.5,132.5 C 650.922,132.709 652.255,133.209 653.5,134C 662.203,142.371 671.203,150.371 680.5,158C 679.315,159.353 677.981,160.52 676.5,161.5C 672.391,158.894 668.724,155.727 665.5,152C 664.833,151.333 664.167,151.333 663.5,152C 654,162.833 644.5,173.667 635,184.5C 633.846,183.257 632.512,182.257 631,181.5C 630.333,180.833 630.333,180.167 631,179.5C 640.5,168.667 650,157.833 659.5,147C 655.667,143.833 651.833,140.667 648,137.5C 648.134,135.811 648.634,134.144 649.5,132.5 Z"/></g>
<g><path style="opacity:1" fill="#12494c" d="M 199.5,143.5 C 207.032,159.085 213.366,175.252 218.5,192C 217.403,196.693 214.736,200.193 210.5,202.5C 209.019,201.52 207.685,200.353 206.5,199C 211.882,195.199 212.882,190.366 209.5,184.5C 198.004,178.253 186.67,171.753 175.5,165C 177.14,163.605 178.64,162.105 180,160.5C 188.916,165.708 197.75,171.041 206.5,176.5C 203.695,167.132 200.029,157.799 195.5,148.5C 196.857,146.814 198.19,145.148 199.5,143.5 Z"/></g>
<g><path style="opacity:1" fill="#14494d" d="M 671.5,170.5 C 673.296,171.793 674.963,173.293 676.5,175C 675.313,176.019 674.313,177.186 673.5,178.5C 677.37,179.074 681.036,180.241 684.5,182C 685.269,184.482 684.269,186.315 681.5,187.5C 675.414,182.237 669.414,182.404 663.5,188C 659.5,192 655.5,196 651.5,200C 648.667,199.833 647.167,198.333 647,195.5C 654.697,187.469 662.697,179.802 671,172.5C 671.464,171.906 671.631,171.239 671.5,170.5 Z"/></g>
<g><path style="opacity:1" fill="#12484c" d="M 154.5,169.5 C 157.169,171.999 160.002,174.332 163,176.5C 165,174.5 167,172.5 169,170.5C 169.5,172.333 170.667,173.5 172.5,174C 169.588,175.858 168.088,178.358 168,181.5C 173.812,187.068 179.812,192.401 186,197.5C 187.973,196.36 189.807,195.027 191.5,193.5C 193.475,194.275 194.309,195.609 194,197.5C 191.411,202.119 187.577,203.953 182.5,203C 176.167,197.333 169.833,191.667 163.5,186C 161.255,186.195 159.422,187.362 158,189.5C 156.833,188.333 155.667,187.167 154.5,186C 156.019,184.649 157.352,183.149 158.5,181.5C 156.066,178.777 153.399,176.277 150.5,174C 152.041,172.629 153.375,171.129 154.5,169.5 Z"/></g>
<g><path style="opacity:1" fill="#12484c" d="M 687.5,194.5 C 690.649,194.211 693.649,194.711 696.5,196C 701.795,199.451 704.795,204.284 705.5,210.5C 705.423,212.299 704.923,213.966 704,215.5C 696.333,222.167 688.667,228.833 681,235.5C 680.028,233.695 678.861,232.028 677.5,230.5C 677.977,229.522 678.643,228.689 679.5,228C 669.714,225.558 665.547,219.392 667,209.5C 671.883,201.79 678.05,200.624 685.5,206C 688.538,208.703 691.205,211.703 693.5,215C 698.062,214.08 699.895,211.247 699,206.5C 696.465,201.121 692.465,199.121 687,200.5C 686.535,199.069 685.701,197.903 684.5,197C 685.571,196.148 686.571,195.315 687.5,194.5 Z"/></g>
<g><path style="opacity:1" fill="#e2e1e2" d="M 676.5,208.5 C 683.611,209.122 688.111,212.789 690,219.5C 682.115,225.934 676.282,224.601 672.5,215.5C 672.577,212.335 673.91,210.001 676.5,208.5 Z"/></g>
<g><path style="opacity:1" fill="#13494d" d="M 729.5,213.5 C 735.187,217.563 734.521,220.563 727.5,222.5C 726.059,221.135 724.726,219.635 723.5,218C 725.684,216.637 727.684,215.137 729.5,213.5 Z"/></g>
<g><path style="opacity:1" fill="#6c9a7f" d="M 575.5,210.5 C 586.364,214.275 596.697,219.775 606.5,227C 691.179,290.307 725.013,374.474 708,479.5C 687.872,563.291 638.372,622.457 559.5,657C 541.131,664.342 522.131,669.009 502.5,671C 457.655,630.44 442.322,580.773 456.5,522C 458.167,521.333 459.833,521.333 461.5,522C 486.162,528.333 510.828,534.666 535.5,541C 548.291,544.62 560.958,544.286 573.5,540C 579,537.167 583.167,533 586,527.5C 585.116,516.189 584.449,504.855 584,493.5C 586.964,489.534 590.297,485.867 594,482.5C 596.451,474.846 594.618,468.346 588.5,463C 594.277,460.226 598.277,455.893 600.5,450C 600.375,448.373 599.875,446.873 599,445.5C 593.621,441.788 589.287,437.121 586,431.5C 585.267,426.537 587.433,423.37 592.5,422C 607.343,419.329 620.176,412.829 631,402.5C 633.271,399.88 633.938,396.88 633,393.5C 620.667,383.833 609.667,372.833 600,360.5C 594.464,352.43 590.297,343.763 587.5,334.5C 599.21,334.311 608.877,329.811 616.5,321C 612.858,322.314 609.191,323.981 605.5,326C 598.951,327.364 592.951,326.198 587.5,322.5C 587.167,321.667 586.833,320.833 586.5,320C 593.745,297.032 596.578,273.532 595,249.5C 592.713,234.258 586.213,221.258 575.5,210.5 Z"/></g>
<g><path style="opacity:1" fill="#13494d" d="M 147.5,193.5 C 157.46,200.793 167.127,208.46 176.5,216.5C 174.963,220.317 172.796,220.983 170,218.5C 169.822,232.381 163.322,237.215 150.5,233C 143.663,227.659 136.996,222.159 130.5,216.5C 131.861,214.972 133.028,213.305 134,211.5C 140.882,217.383 148.048,222.883 155.5,228C 161.777,229.059 165.11,226.393 165.5,220C 165.458,218.033 164.958,216.199 164,214.5C 157.355,209.356 150.855,204.022 144.5,198.5C 145.952,197.06 146.952,195.394 147.5,193.5 Z"/></g>
<g><path style="opacity:1" fill="#528066" d="M 266.5,222.5 C 258.869,273.116 269.702,319.449 299,361.5C 317.359,385.153 337.359,407.486 359,428.5C 375.639,445.8 389.973,464.8 402,485.5C 419.424,519.192 423.424,554.525 414,591.5C 408.035,614.729 399.702,637.062 389,658.5C 392.297,644.347 394.963,630.013 397,615.5C 400.252,585.016 395.919,555.682 384,527.5C 374.795,507.419 363.795,488.419 351,470.5C 330.13,443.29 308.13,416.956 285,391.5C 272.434,376.039 261.1,359.705 251,342.5C 232.732,309.292 233.065,276.292 252,243.5C 256.843,236.471 261.677,229.471 266.5,222.5 Z"/></g>
<g><path style="opacity:1" fill="#13484c" d="M 715.5,222.5 C 717.619,223.791 719.285,225.625 720.5,228C 710.247,234.709 700.08,241.543 690,248.5C 688.833,246.667 687.667,244.833 686.5,243C 696.584,236.636 706.251,229.803 715.5,222.5 Z"/></g>
<g><path style="opacity:1" fill="#12484c" d="M 121.5,231.5 C 123.857,231.337 126.19,231.503 128.5,232C 136.833,236.833 145.167,241.667 153.5,246.5C 152.394,250.889 150.227,251.889 147,249.5C 148.791,261.029 143.957,267.195 132.5,268C 127.522,266.189 124.522,262.689 123.5,257.5C 124.88,251.575 127.214,246.075 130.5,241C 125.718,236.068 121.551,236.568 118,242.5C 116.113,245.945 116.613,249.111 119.5,252C 118.213,253.41 117.046,254.91 116,256.5C 111.458,252.255 110.458,247.255 113,241.5C 114.978,237.362 117.811,234.029 121.5,231.5 Z"/></g>
<g><path style="opacity:1" fill="#e1e2e2" d="M 134.5,242.5 C 145.772,248.619 146.272,255.286 136,262.5C 131.67,261.839 129.504,259.339 129.5,255C 130.488,250.529 132.155,246.363 134.5,242.5 Z"/></g>
<g><path style="opacity:1" fill="#538067" d="M 229.5,675.5 C 219.671,660.269 207.004,657.269 191.5,666.5C 170.778,657.202 152.945,643.869 138,626.5C 132.969,619.978 127.803,613.644 122.5,607.5C 122.5,606.5 122.5,605.5 122.5,604.5C 141.257,627.771 164.923,643.604 193.5,652C 239.472,660.094 275.639,644.928 302,606.5C 314.807,585.245 320.307,562.245 318.5,537.5C 307.178,532.035 295.511,531.201 283.5,535C 273.49,538.673 263.49,542.34 253.5,546C 242.007,549.657 230.674,549.323 219.5,545C 215.612,542.778 212.779,539.612 211,535.5C 209.136,524.906 207.803,514.239 207,503.5C 204,499.167 200.333,495.5 196,492.5C 195.84,489.102 197.007,486.102 199.5,483.5C 189.653,477.48 187.819,469.48 194,459.5C 195.426,454.243 194.259,449.743 190.5,446C 185.666,442.748 180.666,439.748 175.5,437C 170.452,432.808 170.286,428.308 175,423.5C 189.254,410.659 196.754,394.659 197.5,375.5C 191.777,375.901 186.444,374.735 181.5,372C 184.877,371.548 188.211,370.882 191.5,370C 186.785,367.973 182.785,364.973 179.5,361C 182.446,362.789 185.779,364.123 189.5,365C 192.482,365.498 195.482,365.665 198.5,365.5C 196.074,349.742 194.408,333.909 193.5,318C 192.516,287.598 202.516,261.598 223.5,240C 226.167,238 228.833,236 231.5,234C 232.167,233.333 232.833,233.333 233.5,234C 217.157,271.646 217.657,309.146 235,346.5C 247.186,370.22 261.853,392.22 279,412.5C 304.231,440.055 327.564,469.055 349,499.5C 375.446,540.688 373.446,580.355 343,618.5C 314.145,655.177 276.312,674.177 229.5,675.5 Z"/></g>
<g><path style="opacity:1" fill="#12494c" d="M 725.5,238.5 C 727.389,239.401 728.722,240.901 729.5,243C 729.18,244.653 728.18,245.653 726.5,246C 738.597,250.944 740.93,258.611 733.5,269C 725.748,273.626 717.915,278.126 710,282.5C 708.708,280.751 707.542,278.918 706.5,277C 714.329,272.92 721.996,268.587 729.5,264C 733.211,256.586 731.044,251.753 723,249.5C 714.537,252.815 706.37,256.815 698.5,261.5C 697.248,259.999 696.248,258.332 695.5,256.5C 705.563,250.474 715.563,244.474 725.5,238.5 Z"/></g>
<g><path style="opacity:1" fill="#12484b" d="M 761.5,269.5 C 765.949,275.149 764.283,278.149 756.5,278.5C 756.528,276.418 755.861,274.584 754.5,273C 757.174,272.33 759.507,271.163 761.5,269.5 Z"/></g>
<g><path style="opacity:1" fill="#12484c" d="M 745.5,276.5 C 747.513,277.475 748.846,279.142 749.5,281.5C 738.531,287.234 727.364,292.568 716,297.5C 715.55,295.481 714.717,293.648 713.5,292C 724.349,287.075 735.016,281.908 745.5,276.5 Z"/></g>
<g><path style="opacity:1" fill="#12494c" d="M 103.5,267.5 C 109.269,266.896 114.602,268.062 119.5,271C 115.833,278.667 112.167,286.333 108.5,294C 117.538,297.979 123.204,295.312 125.5,286C 124.204,283.266 123.704,280.433 124,277.5C 124.869,274.237 126.203,273.904 128,276.5C 133.123,287.071 130.623,295.237 120.5,301C 106.13,302.991 96.7962,297.158 92.5,283.5C 93.23,276.009 96.8967,270.676 103.5,267.5 Z"/></g>
<g><path style="opacity:1" fill="#e1e1e2" d="M 103.5,273.5 C 106.187,273.336 108.854,273.503 111.5,274C 111.957,274.414 112.291,274.914 112.5,275.5C 110.019,280.956 107.352,286.289 104.5,291.5C 98.4227,287.978 96.9227,282.978 100,276.5C 101.145,275.364 102.312,274.364 103.5,273.5 Z"/></g>
<g><path style="opacity:1" fill="#12484c" d="M 753.5,294.5 C 755.043,295.736 756.043,297.402 756.5,299.5C 755.619,300.971 754.286,301.804 752.5,302C 761.359,306.582 763.859,313.416 760,322.5C 750.555,328.152 740.388,332.152 729.5,334.5C 728.769,332.401 728.769,330.401 729.5,328.5C 737.655,325.893 745.655,322.893 753.5,319.5C 757.449,314.46 756.782,309.96 751.5,306C 741.528,305.874 732.028,308.041 723,312.5C 721.885,311 721.052,309.333 720.5,307.5C 731.487,302.953 742.487,298.619 753.5,294.5 Z"/></g>
<g><path style="opacity:1" fill="#12484c" d="M 75.5,303.5 C 83.985,302.648 89.1517,306.315 91,314.5C 97.4997,306.838 104.5,306.505 112,313.5C 113.974,316.503 115.14,319.836 115.5,323.5C 113.502,331.994 111.002,340.327 108,348.5C 92.3333,343.5 76.6667,338.5 61,333.5C 62.8783,325.011 65.5449,316.678 69,308.5C 70.9651,306.45 73.1318,304.783 75.5,303.5 Z"/></g>
<g><path style="opacity:1" fill="#e1e2e2" d="M 96.5,315.5 C 105.827,314.329 109.994,318.329 109,327.5C 107.958,332.008 106.458,336.341 104.5,340.5C 98.8128,338.494 93.1462,336.494 87.5,334.5C 88.8667,327.302 91.8667,320.968 96.5,315.5 Z"/></g>
<g><path style="opacity:1" fill="#e1e2e2" d="M 75.5,310.5 C 84.3298,309.162 87.8298,312.829 86,321.5C 84.7977,325.666 83.2977,329.666 81.5,333.5C 76.8278,331.832 72.1612,330.165 67.5,328.5C 68.9738,321.883 71.6404,315.883 75.5,310.5 Z"/></g>
<g><path style="opacity:1" fill="#12484c" d="M 754.5,337.5 C 770.254,338.549 775.588,346.382 770.5,361C 771.784,361.684 772.951,361.517 774,360.5C 774.991,362.447 775.325,364.447 775,366.5C 762.268,369.48 749.434,372.147 736.5,374.5C 728.583,374.136 723.75,370.136 722,362.5C 719.517,354.221 721.851,347.887 729,343.5C 729.601,345.137 730.101,346.803 730.5,348.5C 725.683,354.061 725.349,359.894 729.5,366C 734.274,368.793 739.274,369.126 744.5,367C 737.342,362.882 734.842,356.716 737,348.5C 741.216,342.148 747.05,338.481 754.5,337.5 Z"/></g>
<g><path style="opacity:1" fill="#e1e2e2" d="M 751.5,344.5 C 756.734,343.835 761.568,344.835 766,347.5C 769.627,352.807 769.127,357.64 764.5,362C 758.645,364.779 752.645,365.445 746.5,364C 739.222,355.322 740.888,348.822 751.5,344.5 Z"/></g>
<g><path style="opacity:1" fill="#12494c" d="M 70.5,378.5 C 80.8288,379.233 91.1621,379.9 101.5,380.5C 101.5,382.5 101.5,384.5 101.5,386.5C 99.8008,386.34 98.1341,386.506 96.5,387C 98.0488,388.214 99.2155,389.714 100,391.5C 102.857,401.476 99.3567,407.476 89.5,409.5C 85.4422,409.554 82.2756,407.888 80,404.5C 78.6226,397.924 78.1226,391.257 78.5,384.5C 69.4921,384.507 66.3254,388.84 69,397.5C 70.4095,398.787 71.9095,399.954 73.5,401C 72.7511,402.734 72.2511,404.567 72,406.5C 66.1927,404.357 63.0261,400.191 62.5,394C 62.6845,387.462 65.3512,382.295 70.5,378.5 Z"/></g>
<g><path style="opacity:1" fill="#e1e1e2" d="M 83.5,385.5 C 95.1643,386.284 98.4976,391.784 93.5,402C 86.2944,404.481 82.6277,401.814 82.5,394C 82.7978,391.152 83.1312,388.319 83.5,385.5 Z"/></g>
<g><path style="opacity:1" fill="#12484c" d="M 761.5,404.5 C 774.298,402.224 784.465,406.224 792,416.5C 796.544,427.018 794.711,436.184 786.5,444C 784.35,445.411 782.016,446.245 779.5,446.5C 779.192,444.076 779.526,441.743 780.5,439.5C 788.534,434.906 790.701,428.239 787,419.5C 780.11,411.985 771.61,409.485 761.5,412C 749.397,416.037 745.897,423.871 751,435.5C 752.413,437.414 754.247,438.747 756.5,439.5C 757.833,441.833 757.833,444.167 756.5,446.5C 743.591,440.128 739.758,430.128 745,416.5C 748.892,410.151 754.392,406.151 761.5,404.5 Z"/></g>
<g><path style="opacity:1" fill="#12494b" d="M 46.5,418.5 C 49.1667,418.5 51.8333,418.5 54.5,418.5C 54.5,420.5 54.5,422.5 54.5,424.5C 51.8333,424.5 49.1667,424.5 46.5,424.5C 46.5,422.5 46.5,420.5 46.5,418.5 Z"/></g>
<g><path style="opacity:1" fill="#12484d" d="M 63.5,418.5 C 78.8829,418.082 94.2162,418.582 109.5,420C 113.907,422.532 115.574,426.365 114.5,431.5C 112.833,431.5 111.167,431.5 109.5,431.5C 109.528,429.418 108.861,427.584 107.5,426C 92.8538,424.882 78.1872,424.382 63.5,424.5C 63.5,422.5 63.5,420.5 63.5,418.5 Z"/></g>
<g><path style="opacity:1" fill="#12494c" d="M 78.5,433.5 C 79.8333,433.5 81.1667,433.5 82.5,433.5C 82.6562,442.175 82.9895,450.842 83.5,459.5C 92.3855,458.795 96.2189,454.128 95,445.5C 94.0267,443.36 92.5267,441.693 90.5,440.5C 89.5344,438.604 89.2011,436.604 89.5,434.5C 97.1732,436.625 101.173,441.792 101.5,450C 99.4302,460.89 92.7635,466.39 81.5,466.5C 70.1698,466.001 63.8365,460.167 62.5,449C 63.79,439.542 69.1233,434.376 78.5,433.5 Z"/></g>
<g><path style="opacity:1" fill="#e1e2e2" d="M 75.5,440.5 C 76.5,440.5 77.5,440.5 78.5,440.5C 78.407,446.863 78.7403,453.196 79.5,459.5C 69.4,458.961 66.0667,453.961 69.5,444.5C 71.2903,442.684 73.2903,441.351 75.5,440.5 Z"/></g>
<g><path style="opacity:1" fill="#12494c" d="M 751.5,456.5 C 760.091,455.52 767.591,457.853 774,463.5C 778.654,471.575 777.821,479.075 771.5,486C 766.002,489.341 760.335,489.841 754.5,487.5C 755.833,479.5 757.167,471.5 758.5,463.5C 747.949,461.552 743.449,465.885 745,476.5C 745.615,478.116 746.615,479.449 748,480.5C 748.629,487.836 746.629,488.503 742,482.5C 736.047,470.373 739.213,461.706 751.5,456.5 Z"/></g>
<g><path style="opacity:1" fill="#e1e1e3" d="M 762.5,463.5 C 771.034,465.35 773.868,470.35 771,478.5C 768.303,481.87 764.803,483.204 760.5,482.5C 760.979,476.145 761.646,469.812 762.5,463.5 Z"/></g>
<g><path style="opacity:1" fill="#13484c" d="M 92.5,473.5 C 101.24,475.415 105.907,480.915 106.5,490C 105.18,499.32 99.8472,504.653 90.5,506C 73.8248,507.992 66.6581,500.826 69,484.5C 72.6581,478.249 78.1581,474.916 85.5,474.5C 86.9416,482.816 88.2749,491.15 89.5,499.5C 99.1175,497.926 102.284,492.593 99,483.5C 97.7365,481.393 95.9032,480.393 93.5,480.5C 93.0074,478.194 92.6741,475.861 92.5,473.5 Z"/></g>
<g><path style="opacity:1" fill="#e1e1e3" d="M 80.5,481.5 C 81.6491,481.791 82.3158,482.624 82.5,484C 83.4481,489.523 84.4481,495.023 85.5,500.5C 75.6835,500.477 71.8501,495.81 74,486.5C 75.8049,484.174 77.9716,482.508 80.5,481.5 Z"/></g>
<g><path style="opacity:1" fill="#12484d" d="M 736.5,493.5 C 748.188,496.673 759.855,500.006 771.5,503.5C 770.691,505.071 770.357,506.738 770.5,508.5C 768.801,508.34 767.134,508.506 765.5,509C 769.94,516.142 768.94,522.476 762.5,528C 759.262,529.368 755.928,529.701 752.5,529C 744.086,527.359 736.086,524.859 728.5,521.5C 729.052,519.667 729.885,518 731,516.5C 740.167,520.168 749.667,522.001 759.5,522C 765.489,514.272 763.822,508.605 754.5,505C 747.593,503.609 740.926,501.609 734.5,499C 735.244,497.185 735.911,495.352 736.5,493.5 Z"/></g>
<g><path style="opacity:1" fill="#12494c" d="M 75.5,514.5 C 76.9778,514.238 78.3112,514.571 79.5,515.5C 81.4379,520.219 84.9379,522.885 90,523.5C 97.0267,521.715 104.027,519.715 111,517.5C 112.713,518.954 113.88,520.788 114.5,523C 102.798,526.401 91.1313,529.901 79.5,533.5C 76.1681,529.16 77.1681,526.493 82.5,525.5C 77.7065,523.873 74.3731,520.707 72.5,516C 73.7375,515.768 74.7375,515.268 75.5,514.5 Z"/></g>
<g><path style="opacity:1" fill="#12484c" d="M 725.5,536.5 C 735.077,537.635 744.244,540.302 753,544.5C 754.867,543.623 756.034,542.123 756.5,540C 758.464,539.376 760.131,539.876 761.5,541.5C 760.36,543.078 759.86,544.744 760,546.5C 763.184,548.004 766.351,549.504 769.5,551C 768.671,552.816 767.837,554.649 767,556.5C 763.917,555.361 760.917,554.028 758,552.5C 756.289,554.956 754.956,557.623 754,560.5C 752.581,559.54 751.081,558.707 749.5,558C 750.5,555.667 751.5,553.333 752.5,551C 744.721,548.027 736.887,545.194 729,542.5C 726.797,543.877 725.297,545.877 724.5,548.5C 723.264,547.754 721.93,547.421 720.5,547.5C 720.846,543.148 722.512,539.481 725.5,536.5 Z"/></g>
<g><path style="opacity:1" fill="#12484c" d="M 716.5,553.5 C 727.97,558.378 739.303,563.545 750.5,569C 749.283,570.648 748.45,572.481 748,574.5C 746.401,572.964 744.567,572.464 742.5,573C 744.57,576.883 744.903,580.883 743.5,585C 741.402,584.968 739.402,584.301 737.5,583C 740.304,578.035 739.637,573.535 735.5,569.5C 728.779,565.473 721.779,561.973 714.5,559C 715.861,557.416 716.528,555.582 716.5,553.5 Z"/></g>
<g><path style="opacity:1" fill="#12484c" d="M 115.5,532.5 C 117.175,534.179 118.008,536.179 118,538.5C 110.517,541.662 103.017,544.829 95.5,548C 90.2566,552.588 90.2566,557.255 95.5,562C 97.0344,562.923 98.701,563.423 100.5,563.5C 108.93,561.19 117.096,558.19 125,554.5C 125.837,556.351 126.671,558.184 127.5,560C 111.291,566.687 95.1241,573.52 79,580.5C 77.4766,578.431 76.6432,576.097 76.5,573.5C 83.0556,571.555 89.389,569.055 95.5,566C 86.2748,562.377 83.4414,555.877 87,546.5C 89.4075,544.044 92.2409,542.211 95.5,541C 102.372,538.39 109.038,535.557 115.5,532.5 Z"/></g>
<g><path style="opacity:1" fill="#12494c" d="M 709.5,578.5 C 719.801,578.563 727.634,582.897 733,591.5C 736.054,601.007 733.22,608.173 724.5,613C 717.859,614.406 711.859,613.073 706.5,609C 710.959,601.916 715.292,594.75 719.5,587.5C 712.922,582.916 707.422,583.916 703,590.5C 702.107,593.916 702.607,597.083 704.5,600C 702.959,601.579 701.792,603.413 701,605.5C 694.073,593.447 696.906,584.447 709.5,578.5 Z"/></g>
<g><path style="opacity:1" fill="#e1e2e2" d="M 723.5,589.5 C 730.972,594.9 731.306,600.734 724.5,607C 720.705,607.837 717.039,607.504 713.5,606C 717.059,600.614 720.392,595.114 723.5,589.5 Z"/></g>
<g><path style="opacity:1" fill="#12484c" d="M 122.5,604.5 C 122.5,605.5 122.5,606.5 122.5,607.5C 121.303,615.528 116.637,619.362 108.5,619C 99.5581,615.65 94.5581,609.15 93.5,599.5C 93.8338,594.499 96.0004,590.499 100,587.5C 101.039,589.746 102.206,591.913 103.5,594C 100.783,595.259 99.4499,597.426 99.5,600.5C 100.076,608.924 104.409,612.757 112.5,612C 114.584,610.499 115.917,608.499 116.5,606C 114.851,599.735 113.517,593.402 112.5,587C 115.555,574.806 122.889,571.139 134.5,576C 143.654,583.454 146.154,592.62 142,603.5C 140.667,604.833 139.333,606.167 138,607.5C 136.708,605.751 135.542,603.918 134.5,602C 139.953,595.129 139.62,588.463 133.5,582C 128.21,578.278 123.71,579.112 120,584.5C 119.536,591.316 120.369,597.982 122.5,604.5 Z"/></g>
<g><path style="opacity:1" fill="#707070" d="M 674.5,643.5 C 677.621,645.448 680.621,647.615 683.5,650C 682.12,651.925 680.62,653.759 679,655.5C 676.257,653.212 673.423,651.045 670.5,649C 671.965,647.226 673.298,645.392 674.5,643.5 Z"/></g>
<g><path style="opacity:1" fill="#707070" d="M 650.5,630.5 C 652.148,631.81 653.814,633.143 655.5,634.5C 652.674,638.392 651.841,642.725 653,647.5C 658.167,654 664,659.833 670.5,665C 669,666.5 667.5,668 666,669.5C 657.131,660.962 647.964,652.796 638.5,645C 640.017,643.315 641.684,641.815 643.5,640.5C 645.149,641.648 646.649,642.981 648,644.5C 646.832,639.521 647.665,634.854 650.5,630.5 Z"/></g>
<g><path style="opacity:1" fill="#717171" d="M 229.5,675.5 C 231.114,680.703 230.614,685.703 228,690.5C 226.075,689.12 224.241,687.62 222.5,686C 224.728,682.031 224.395,678.198 221.5,674.5C 215.282,665.768 207.949,664.435 199.5,670.5C 192.044,675.223 187.71,682.057 186.5,691C 190.211,704.425 198.211,708.092 210.5,702C 211.872,700.758 212.872,699.258 213.5,697.5C 209.833,694.667 206.167,691.833 202.5,689C 204.019,687.649 205.352,686.149 206.5,684.5C 211.858,688.863 217.191,693.197 222.5,697.5C 217.191,704.644 211.691,711.644 206,718.5C 204.229,717.696 202.729,716.529 201.5,715C 202.687,713.981 203.687,712.814 204.5,711.5C 185.515,709.364 178.015,699.03 182,680.5C 184.606,675.405 187.772,670.738 191.5,666.5C 207.004,657.269 219.671,660.269 229.5,675.5 Z"/></g>
<g><path style="opacity:1" fill="#56816a" d="M 221.5,674.5 C 214.113,673.487 206.779,672.153 199.5,670.5C 207.949,664.435 215.282,665.768 221.5,674.5 Z"/></g>
<g><path style="opacity:1" fill="#717171" d="M 633.5,649.5 C 642.3,658.469 650.967,667.635 659.5,677C 657.43,677.948 655.93,679.448 655,681.5C 654,680.5 653,679.5 652,678.5C 650.144,690.169 643.644,694.335 632.5,691C 625.468,684.303 618.802,677.303 612.5,670C 614,668.5 615.5,667 617,665.5C 622.801,672.302 628.968,678.802 635.5,685C 640.715,687.317 644.548,685.817 647,680.5C 647.667,678.5 647.667,676.5 647,674.5C 641.541,667.373 635.708,660.539 629.5,654C 631.635,653.124 632.969,651.624 633.5,649.5 Z"/></g>
<g><path style="opacity:1" fill="#717171" d="M 602.5,677.5 C 614.668,678.159 622.168,684.492 625,696.5C 625.826,708.181 620.326,714.515 608.5,715.5C 611.711,720.089 615.045,724.589 618.5,729C 617.183,730.659 615.517,731.826 613.5,732.5C 603.39,719.127 593.39,705.627 583.5,692C 585.959,687.819 588.459,687.652 591,691.5C 592.18,684.5 596.014,679.833 602.5,677.5 Z"/></g>
<g><path style="opacity:1" fill="#e1e1e1" d="M 602.5,683.5 C 611.891,685.172 617.558,690.838 619.5,700.5C 616.987,709.259 611.653,711.759 603.5,708C 599.11,704.057 596.11,699.224 594.5,693.5C 595.388,688.624 598.055,685.291 602.5,683.5 Z"/></g>
<g><path style="opacity:1" fill="#717171" d="M 270.5,695.5 C 272.593,696.045 274.593,696.878 276.5,698C 275.144,700.398 273.977,702.898 273,705.5C 270.863,704.521 269.029,703.188 267.5,701.5C 268.513,699.473 269.513,697.473 270.5,695.5 Z"/></g>
<g><path style="opacity:1" fill="#717171" d="M 572.5,698.5 C 577.462,698.322 581.295,700.322 584,704.5C 588.102,712.262 592.602,719.762 597.5,727C 594.908,729.457 592.408,729.624 590,727.5C 586.554,735.806 580.387,739.306 571.5,738C 565.397,734.96 563.231,730.126 565,723.5C 568.715,717.556 573.882,713.389 580.5,711C 577.505,704.13 572.838,702.797 566.5,707C 564.998,709.574 563.998,712.407 563.5,715.5C 562.15,716.95 560.484,717.617 558.5,717.5C 557.343,711.614 559.01,706.781 563.5,703C 566.592,701.454 569.592,699.954 572.5,698.5 Z"/></g>
<g><path style="opacity:1" fill="#717171" d="M 236.5,695.5 C 243.522,696.423 249.022,699.757 253,705.5C 253.667,708.167 253.667,710.833 253,713.5C 248.08,721.672 243.413,730.005 239,738.5C 237.167,737.333 235.333,736.167 233.5,735C 236.074,731.404 235.074,730.571 230.5,732.5C 217.799,729.766 214.299,722.766 220,711.5C 223.088,708.903 226.588,708.069 230.5,709C 235.558,710.363 240.224,712.529 244.5,715.5C 249.637,707.934 247.637,703.268 238.5,701.5C 236.389,701.486 234.555,702.152 233,703.5C 231.374,702.711 229.874,701.711 228.5,700.5C 230.601,697.79 233.267,696.123 236.5,695.5 Z"/></g>
<g><path style="opacity:1" fill="#e2e2e2" d="M 227.5,713.5 C 233.212,714.023 238.212,716.19 242.5,720C 237.743,729.599 231.577,730.766 224,723.5C 222.756,719.191 223.923,715.858 227.5,713.5 Z"/></g>
<g><path style="opacity:1" fill="#717171" d="M 263.5,709.5 C 265.308,710.907 267.308,712.074 269.5,713C 263.961,723.912 258.294,734.745 252.5,745.5C 250.668,744.752 249.001,743.752 247.5,742.5C 253.117,731.6 258.45,720.6 263.5,709.5 Z"/></g>
<g><path style="opacity:1" fill="#e1e1e1" d="M 580.5,715.5 C 583.05,715.561 584.55,716.894 585,719.5C 587.194,728.979 583.36,733.145 573.5,732C 570.903,729.683 570.07,726.85 571,723.5C 573.747,720.246 576.914,717.58 580.5,715.5 Z"/></g>
<g><path style="opacity:1" fill="#717171" d="M 550.5,710.5 C 552.045,711.23 552.878,712.563 553,714.5C 554.227,727.661 555.393,740.828 556.5,754C 557.558,762.411 554.058,767.578 546,769.5C 544.48,768.303 543.313,766.803 542.5,765C 549.214,763.41 551.714,759.244 550,752.5C 540.948,742.904 531.782,733.404 522.5,724C 524.249,722.708 526.082,721.542 528,720.5C 535.333,728.5 542.667,736.5 550,744.5C 549.313,734.15 548.146,723.817 546.5,713.5C 547.901,712.479 549.235,711.479 550.5,710.5 Z"/></g>
<g><path style="opacity:1" fill="#717171" d="M 510.5,725.5 C 515.609,724.923 519.776,726.59 523,730.5C 526.112,739.84 529.612,749.006 533.5,758C 530.033,760.44 527.2,759.94 525,756.5C 522.336,762.093 517.836,765.093 511.5,765.5C 502.09,763.349 498.924,757.683 502,748.5C 506.66,743.253 512.493,740.253 519.5,739.5C 517.539,730.848 512.872,728.848 505.5,733.5C 504.066,735.22 503.233,737.22 503,739.5C 501.559,740.26 500.059,740.926 498.5,741.5C 496.51,736.304 497.844,732.137 502.5,729C 505.309,727.907 507.976,726.74 510.5,725.5 Z"/></g>
<g><path style="opacity:1" fill="#717171" d="M 314.5,713.5 C 317.201,713.659 319.201,714.826 320.5,717C 318.43,723.111 316.93,729.278 316,735.5C 324.227,730.796 330.894,732.463 336,740.5C 336.667,743.833 336.667,747.167 336,750.5C 333.848,757.774 332.015,765.108 330.5,772.5C 328.073,772.477 325.74,771.977 323.5,771C 326.216,762.638 328.55,754.138 330.5,745.5C 329.22,739.525 325.553,737.025 319.5,738C 317.919,738.707 316.419,739.54 315,740.5C 311.384,748.847 308.884,757.513 307.5,766.5C 304.903,766.357 302.569,765.523 300.5,764C 305.67,747.32 310.337,730.487 314.5,713.5 Z"/></g>
<g><path style="opacity:1" fill="#717171" d="M 484.5,717.5 C 489.245,734.876 493.245,752.543 496.5,770.5C 494.533,770.261 492.699,770.594 491,771.5C 490.71,769.956 490.044,768.623 489,767.5C 484.874,773.97 479.041,776.137 471.5,774C 463.552,769.62 459.552,762.786 459.5,753.5C 460.897,740.807 467.897,735.307 480.5,737C 481.416,737.374 482.25,737.874 483,738.5C 482.255,732.671 481.089,726.838 479.5,721C 479.645,720.228 479.978,719.561 480.5,719C 482.058,718.79 483.391,718.29 484.5,717.5 Z"/></g>
<g><path style="opacity:1" fill="#e1e1e1" d="M 473.5,741.5 C 476.649,741.211 479.649,741.711 482.5,743C 487.162,749.974 488.329,757.474 486,765.5C 476.707,771.698 470.373,769.365 467,758.5C 464.803,750.929 466.969,745.263 473.5,741.5 Z"/></g>
<g><path style="opacity:1" fill="#e2e2e2" d="M 518.5,743.5 C 519.5,743.5 520.5,743.5 521.5,743.5C 522.931,747.919 522.764,752.252 521,756.5C 516.781,759.871 512.447,760.205 508,757.5C 505.749,753.334 506.583,749.834 510.5,747C 513.309,745.907 515.976,744.74 518.5,743.5 Z"/></g>
<g><path style="opacity:1" fill="#717171" d="M 381.5,732.5 C 383.833,732.5 386.167,732.5 388.5,732.5C 387.886,736.135 387.552,739.802 387.5,743.5C 390.127,744.092 392.794,744.425 395.5,744.5C 395.5,746.167 395.5,747.833 395.5,749.5C 392.552,749.223 389.719,749.556 387,750.5C 386.19,758.498 385.857,766.498 386,774.5C 387.897,776.016 390.064,776.683 392.5,776.5C 392.825,779.524 391.492,781.191 388.5,781.5C 384.581,781.501 381.747,779.834 380,776.5C 379.598,767.16 379.765,757.827 380.5,748.5C 378.5,748.5 376.5,748.5 374.5,748.5C 374.201,746.396 374.534,744.396 375.5,742.5C 377.409,743.348 379.409,743.682 381.5,743.5C 381.5,739.833 381.5,736.167 381.5,732.5 Z"/></g>
<g><path style="opacity:1" fill="#717171" d="M 278.5,719.5 C 286.999,718.039 293.166,721.039 297,728.5C 298.976,725.139 301.476,724.972 304.5,728C 299.338,740.15 294.171,752.316 289,764.5C 281.747,773.009 273.58,773.842 264.5,767C 259.807,763.346 258.307,758.846 260,753.5C 264.166,754.466 266.5,757.133 267,761.5C 276.117,768.29 282.617,766.29 286.5,755.5C 269.292,757.438 262.792,749.771 267,732.5C 269.3,726.706 273.133,722.373 278.5,719.5 Z"/></g>
<g><path style="opacity:1" fill="#e1e1e1" d="M 280.5,725.5 C 291.216,724.38 295.382,729.047 293,739.5C 291.596,745.683 287.93,749.683 282,751.5C 275.833,750.667 272.333,747.167 271.5,741C 272.088,734.311 275.088,729.144 280.5,725.5 Z"/></g>
<g><path style="opacity:1" fill="#717171" d="M 354.5,738.5 C 363.51,738.321 369.177,742.487 371.5,751C 369.653,760.096 368.32,769.263 367.5,778.5C 363.542,779.109 361.376,777.442 361,773.5C 360.097,774.701 358.931,775.535 357.5,776C 351.361,777.451 345.861,776.284 341,772.5C 337.013,764.796 338.846,758.963 346.5,755C 352.528,754.359 358.528,754.526 364.5,755.5C 365.134,745.819 360.801,742.319 351.5,745C 349.906,748.455 347.406,749.288 344,747.5C 343.935,744.802 345.102,742.636 347.5,741C 349.927,740.098 352.26,739.264 354.5,738.5 Z"/></g>
<g><path style="opacity:1" fill="#e1e1e1" d="M 350.5,758.5 C 354.842,758.739 359.176,759.073 363.5,759.5C 362.162,771.979 356.329,774.979 346,768.5C 344.558,763.723 346.058,760.39 350.5,758.5 Z"/></g>
<g><path style="opacity:1" fill="#717171" d="M 446.5,727.5 C 448.766,727.141 450.599,727.808 452,729.5C 452.808,739.502 453.641,749.502 454.5,759.5C 454.639,773.195 447.806,780.195 434,780.5C 425.989,780.335 420.322,776.668 417,769.5C 414.764,756.602 413.264,743.602 412.5,730.5C 414.833,730.5 417.167,730.5 419.5,730.5C 420.116,742.555 421.282,754.555 423,766.5C 427.876,774.899 434.709,776.732 443.5,772C 445.041,770.421 446.208,768.587 447,766.5C 447.345,755.474 446.845,744.474 445.5,733.5C 445.573,731.41 445.906,729.41 446.5,727.5 Z"/></g>
<g><path style="opacity:1" fill="#717171" d="M 401.5,769.5 C 403.5,769.5 405.5,769.5 407.5,769.5C 406.917,775.082 405.417,780.416 403,785.5C 401.144,788.119 398.644,788.952 395.5,788C 398.659,782.194 400.659,776.027 401.5,769.5 Z"/></g>
</svg>
